<?xml version="1.0" encoding="UTF-8"?>
<svg width="12px" height="12px" viewBox="0 0 12 12" version="1.1" xmlns="http://www.w3.org/2000/svg" xmlns:xlink="http://www.w3.org/1999/xlink">
    <!-- Generator: Sketch 50.2 (55047) - http://www.bohemiancoding.com/sketch -->
    <title>Group 3</title>
    <desc>Created with Sketch.</desc>
    <defs></defs>
    <g id="AI-Setting---Banners/Case-Page" stroke="none" stroke-width="1" fill="none" fill-rule="evenodd">
        <g id="KYC_Case---Not-Qualified" transform="translate(-566.000000, -631.000000)">
            <g id="Group-14" transform="translate(120.000000, 437.000000)">
                <g id="Group-6" transform="translate(32.000000, 193.000000)">
                    <g id="Group-3" transform="translate(414.000000, 1.000000)">
                        <circle id="Oval-Copy-3" fill="#E82053" cx="6" cy="6" r="6"></circle>
                        <path d="M5.7551561,6.64618481 L5.63405866,4.71777065 C5.61135277,4.34201653 5.6,4.0722828 5.6,3.90856136 C5.6,3.68579285 5.65487173,3.51200918 5.76461684,3.38720513 C5.87436195,3.26240109 6.01879444,3.2 6.19791864,3.2 C6.41488598,3.2 6.55994918,3.27984655 6.63311258,3.43954205 C6.70627599,3.59923755 6.74285714,3.8293835 6.74285714,4.12998679 C6.74285714,4.30712802 6.73402721,4.4869505 6.71636708,4.66945965 L6.55364238,6.65423665 C6.53598225,6.89042495 6.49813968,7.0715894 6.44011353,7.19773542 C6.38208738,7.32388145 6.28621953,7.38695351 6.1525071,7.38695351 C6.01627179,7.38695351 5.92166535,7.32589439 5.86868496,7.2037743 C5.81570456,7.08165421 5.77786199,6.89579291 5.7551561,6.64618481 Z M6.17521287,9.2952381 C6.02131743,9.2952381 5.88697629,9.24223072 5.77218543,9.13621438 C5.65739457,9.03019804 5.6,8.88191159 5.6,8.69135057 C5.6,8.52494517 5.65487173,8.38336851 5.76461684,8.26661634 C5.87436195,8.14986417 6.00870308,8.09148896 6.16764428,8.09148896 C6.32658547,8.09148896 6.46218802,8.14986417 6.57445601,8.26661634 C6.68672399,8.38336851 6.74285714,8.52494517 6.74285714,8.69135057 C6.74285714,8.87922763 6.68609328,9.0268431 6.57256386,9.13420142 C6.45903444,9.24155974 6.32658543,9.2952381 6.17521287,9.2952381 Z" id="!" fill="#FFFFFF"></path>
                    </g>
                </g>
            </g>
        </g>
    </g>
</svg>