<svg xmlns="http://www.w3.org/2000/svg" viewBox="0 0 198.99 137.29"><defs><style>.cls-1{fill:none;stroke:#e4b030;stroke-linecap:round;stroke-linejoin:round;stroke-width:4px;}</style></defs><title>Asset 4</title><g id="Layer_2" data-name="Layer 2"><g id="graphics"><path class="cls-1" d="M107.85,68.64h-96A9.87,9.87,0,0,1,2,58.77V11.87A9.87,9.87,0,0,1,11.87,2H187.12A9.87,9.87,0,0,1,197,11.87V46.58"/><line class="cls-1" x1="31.62" y1="20.51" x2="31.62" y2="50.13"/><line class="cls-1" x1="44.01" y1="27.2" x2="19.24" y2="43.44"/><line class="cls-1" x1="43.94" y1="43.54" x2="19.3" y2="27.1"/><line class="cls-1" x1="76.05" y1="20.51" x2="76.05" y2="50.13"/><line class="cls-1" x1="88.44" y1="27.2" x2="63.67" y2="43.44"/><line class="cls-1" x1="88.37" y1="43.54" x2="63.73" y2="27.1"/><rect class="cls-1" x="122.94" y="76.05" width="74.05" height="59.24"/><line class="cls-1" x1="159.75" y1="115.2" x2="159.75" y2="100.39"/><path class="cls-1" d="M137.54,76.06v-7.4a22.21,22.21,0,1,1,44.43,0v7.4"/><path class="cls-1" d="M163.45,96.69a3.7,3.7,0,0,1-3.7,3.7h0a3.7,3.7,0,0,1-3.7-3.7h0a3.7,3.7,0,0,1,3.7-3.7h0a3.7,3.7,0,0,1,3.7,3.7Z"/></g></g></svg>