<svg xmlns="http://www.w3.org/2000/svg" width="687.53" height="752" viewBox="0 0 687.53 752">
  <metadata><?xpacket begin="﻿" id="W5M0MpCehiHzreSzNTczkc9d"?>
<x:xmpmeta xmlns:x="adobe:ns:meta/" x:xmptk="Adobe XMP Core 5.6-c138 79.159824, 2016/09/14-01:09:01        ">
   <rdf:RDF xmlns:rdf="http://www.w3.org/1999/02/22-rdf-syntax-ns#">
      <rdf:Description rdf:about=""/>
   </rdf:RDF>
</x:xmpmeta>
                                                                                                    
                                                                                                    
                                                                                                    
                                                                                                    
                                                                                                    
                                                                                                    
                                                                                                    
                                                                                                    
                                                                                                    
                                                                                                    
                                                                                                    
                                                                                                    
                                                                                                    
                                                                                                    
                                                                                                    
                                                                                                    
                                                                                                    
                                                                                                    
                                                                                                    
                                                                                                    
                           
<?xpacket end="w"?></metadata>
<defs>
    <style>
      .cls-1 {
        fill: #438bad;
        fill-opacity: 0.15;
        fill-rule: evenodd;
      }
    </style>
  </defs>
  <path id="bg_icon" data-name="bg icon" class="cls-1" d="M2873.13,15029.3a61.14,61.14,0,0,0-61.05,61.1,8.725,8.725,0,0,0,17.45,0,43.605,43.605,0,1,1,43.6,43.6,8.717,8.717,0,0,0-8.72,8.7v52.4a8.72,8.72,0,0,0,17.44,0v-44.3A61.064,61.064,0,0,0,2873.13,15029.3Zm0,192a17.45,17.45,0,1,0,17.44,17.4A17.434,17.434,0,0,0,2873.13,15221.3Zm-223.85,96.7H2457.41a56.027,56.027,0,0,1-55.96-56v-562.8a71.913,71.913,0,0,0,55.96,26.8h535.64v136a8,8,0,1,0,15.99,0v-144a8.009,8.009,0,0,0-7.99-8H2457.41a56,56,0,0,1,0-112h543.64a8,8,0,0,0,0-16H2457.41a72.059,72.059,0,0,0-71.95,72,70.739,70.739,0,0,0,1.09,12,7.93,7.93,0,0,0-1.09,4v592a72.059,72.059,0,0,0,71.95,72h191.87A8,8,0,0,0,2649.28,15318Zm223.85-384c-110.2,0-199.86,89.7-199.86,200s89.66,200,199.86,200,199.87-89.7,199.87-200S2983.34,14934,2873.13,14934Zm0,384c-101.39,0-183.87-82.5-183.87-184s82.48-184,183.87-184,183.88,82.5,183.88,184S2974.52,15318,2873.13,15318Zm-415.72-672a8,8,0,0,0,0,16h511.66a8,8,0,0,0,0-16H2457.41Z" transform="translate(-2385.47 -14582)"/>
</svg>
