<svg xmlns="http://www.w3.org/2000/svg" viewBox="0 0 873.01 640.08"><defs><style>.cls-1{fill:#5ebe55;}.cls-16,.cls-17,.cls-18,.cls-19,.cls-2,.cls-20,.cls-21,.cls-3{fill:none;stroke-linecap:round;stroke-linejoin:round;}.cls-2{stroke:#fff;}.cls-16,.cls-17,.cls-18,.cls-19,.cls-2,.cls-21,.cls-3{stroke-width:4px;}.cls-3{stroke:#6c9ba9;}.cls-4,.cls-7{fill:#6c9ba9;}.cls-5{fill:#f4374b;}.cls-6,.cls-7{opacity:0.4;}.cls-8{fill:#bbdfd0;}.cls-9{fill:#8ec5c3;}.cls-10{fill:#fce18b;}.cls-11{fill:#ddefe7;}.cls-12{fill:#fdebb1;}.cls-13{fill:#fbd764;}.cls-14{fill:#fff;}.cls-15{opacity:0.5;}.cls-16{stroke:#82c3b8;}.cls-17{stroke:#7f9183;}.cls-18{stroke:#e4b030;}.cls-19{stroke:#7cc9bc;}.cls-20{stroke:#bbdfd0;stroke-width:4.21px;}.cls-21{stroke:#84d1d4;}</style></defs><title>Asset 1</title><g id="Layer_2" data-name="Layer 2"><g id="graphic"><circle class="cls-1" cx="170.9" cy="235.15" r="25.84"/><polyline class="cls-2" points="182.13 227.29 165.28 243.02 159.66 237.4"/><line class="cls-3" x1="229.67" y1="219.2" x2="229.67" y2="251.11"/><line class="cls-3" x1="243.58" y1="219.2" x2="243.58" y2="251.11"/><line class="cls-3" x1="252.58" y1="228.54" x2="220.67" y2="228.54"/><line class="cls-3" x1="252.58" y1="241.76" x2="220.67" y2="241.76"/><rect class="cls-4" x="270.64" y="217.39" width="387.6" height="35.53" rx="3.23" ry="3.23"/><circle class="cls-1" cx="170.9" cy="153.3" r="25.84"/><polyline class="cls-2" points="182.13 145.44 165.28 161.16 159.66 155.55"/><line class="cls-3" x1="229.67" y1="137.34" x2="229.67" y2="169.25"/><line class="cls-3" x1="243.58" y1="137.34" x2="243.58" y2="169.25"/><line class="cls-3" x1="252.58" y1="146.69" x2="220.67" y2="146.69"/><line class="cls-3" x1="252.58" y1="159.91" x2="220.67" y2="159.91"/><rect class="cls-4" x="270.64" y="135.53" width="387.6" height="35.53" rx="3.23" ry="3.23"/><circle class="cls-5" cx="170.9" cy="317.01" r="25.84"/><line class="cls-2" x1="160.8" y1="306.91" x2="180.99" y2="327.1"/><line class="cls-2" x1="180.99" y1="306.91" x2="160.8" y2="327.1"/><g class="cls-6"><line class="cls-3" x1="229.67" y1="301.05" x2="229.67" y2="332.96"/><line class="cls-3" x1="243.58" y1="301.05" x2="243.58" y2="332.96"/><line class="cls-3" x1="252.58" y1="310.4" x2="220.67" y2="310.4"/><line class="cls-3" x1="252.58" y1="323.61" x2="220.67" y2="323.61"/></g><rect class="cls-7" x="270.64" y="299.24" width="387.6" height="35.53" rx="3.23" ry="3.23"/><circle class="cls-1" cx="170.9" cy="398.86" r="25.84"/><polyline class="cls-2" points="182.13 390.99 165.28 406.72 159.66 401.11"/><line class="cls-3" x1="229.67" y1="382.9" x2="229.67" y2="414.81"/><line class="cls-3" x1="243.58" y1="382.9" x2="243.58" y2="414.81"/><line class="cls-3" x1="252.58" y1="392.25" x2="220.67" y2="392.25"/><line class="cls-3" x1="252.58" y1="405.47" x2="220.67" y2="405.47"/><rect class="cls-4" x="270.64" y="381.09" width="387.6" height="35.53" rx="3.23" ry="3.23"/><circle class="cls-5" cx="170.9" cy="480.71" r="25.84"/><line class="cls-2" x1="160.8" y1="470.62" x2="180.99" y2="490.8"/><line class="cls-2" x1="180.99" y1="470.62" x2="160.8" y2="490.8"/><g class="cls-6"><line class="cls-3" x1="229.67" y1="464.76" x2="229.67" y2="496.67"/><line class="cls-3" x1="243.58" y1="464.76" x2="243.58" y2="496.67"/><line class="cls-3" x1="252.58" y1="474.1" x2="220.67" y2="474.1"/><line class="cls-3" x1="252.58" y1="487.32" x2="220.67" y2="487.32"/></g><rect class="cls-7" x="270.64" y="462.95" width="387.6" height="35.53" rx="3.23" ry="3.23"/><path class="cls-8" d="M288.17,609.45c-8.1,1-14.56-8-8.67-16.28a3.12,3.12,0,0,1,.74-.74c8.31-5.89,17.31.57,16.29,8.67A9.71,9.71,0,0,1,288.17,609.45Z"/><circle class="cls-9" cx="831.17" cy="531.65" r="8.08"/><circle class="cls-9" cx="808.89" cy="434.99" r="8.08"/><circle class="cls-10" cx="349.61" cy="531.51" r="8.08"/><circle class="cls-11" cx="225.79" cy="6.46" r="6.46" transform="translate(28.92 117.21) rotate(-31)"/><circle class="cls-11" cx="852.18" cy="327.09" r="6.46"/><circle class="cls-12" cx="596.85" cy="554.1" r="4.85"/><circle class="cls-11" cx="451.04" cy="635.24" r="4.85"/><circle class="cls-11" cx="102.93" cy="384.47" r="6.46"/><circle class="cls-13" cx="729.34" cy="434.99" r="12.92"/><circle class="cls-4" cx="171.66" cy="580.36" r="5.75"/><circle class="cls-8" cx="858.64" cy="599.83" r="14.36"/><circle class="cls-9" cx="656.19" cy="561.62" r="14.36"/><circle class="cls-11" cx="762.2" cy="132.92" r="14.36"/><circle class="cls-8" cx="627.46" cy="78.91" r="14.36"/><circle class="cls-12" cx="477" cy="580.56" r="8.62"/><circle class="cls-14" cx="142.1" cy="531.6" r="8.62"/><circle class="cls-4" cx="437.58" cy="566" r="8.62"/><circle class="cls-4" cx="863.49" cy="241.25" r="4.85"/><circle class="cls-9" cx="88.68" cy="137.34" r="8.08"/><circle class="cls-9" cx="386.36" cy="90.88" r="8.08"/><circle class="cls-4" cx="71.82" cy="86.7" r="4.04"/><circle class="cls-12" cx="80.61" cy="592.51" r="8.08"/><circle class="cls-12" cx="76.01" cy="254.17" r="8.08"/><circle class="cls-11" cx="709.87" cy="517.25" r="6.46"/><circle class="cls-12" cx="455.08" cy="109.27" r="6.46"/><circle class="cls-12" cx="136.86" cy="47.78" r="4.85" transform="translate(-5.06 77.31) rotate(-31)"/><circle class="cls-11" cx="17.77" cy="224.8" r="4.85"/><circle class="cls-4" cx="50.63" cy="411.67" r="4.85"/><circle class="cls-12" cx="772.79" cy="248.72" r="8.08"/><circle class="cls-8" cx="822.55" cy="213.92" r="6.46"/><circle class="cls-9" cx="184.35" cy="35.5" r="8.08" transform="translate(8.05 100.02) rotate(-31)"/><circle class="cls-14" cx="839.24" cy="132.92" r="8.08"/><circle class="cls-12" cx="229.67" cy="557.38" r="8.08"/><circle class="cls-12" cx="569.03" cy="111.88" r="8.08"/><circle class="cls-4" cx="691.62" cy="246.66" r="4.85"/><circle class="cls-4" cx="510.73" cy="77.58" r="4.85"/><circle class="cls-4" cx="807.54" cy="599.83" r="4.85"/><circle class="cls-8" cx="134.52" cy="77.58" r="4.85"/><circle class="cls-11" cx="12.92" cy="84.04" r="12.92"/><g class="cls-15"><path class="cls-16" d="M701,202.75a15.41,15.41,0,1,0,15.41-15.4,15.41,15.41,0,1,1,15.41-15.41"/><line class="cls-16" x1="716.42" y1="147.29" x2="716.4" y2="227.13"/></g><g class="cls-15"><path class="cls-16" d="M243.58,93.12A15.41,15.41,0,1,0,259,77.72,15.41,15.41,0,1,1,274.4,62.3"/><line class="cls-16" x1="258.99" y1="37.66" x2="258.97" y2="117.5"/></g><g class="cls-15"><path class="cls-16" d="M538.21,569.64a15.41,15.41,0,1,0,15.41-15.4A15.41,15.41,0,1,1,569,538.82"/><line class="cls-16" x1="553.62" y1="514.18" x2="553.6" y2="594.02"/></g><path class="cls-17" d="M74.41,522.26a26.56,26.56,0,0,1-13.11,3.46c-15.3,0-27.7-13-27.7-29s12.4-29,27.7-29a26.56,26.56,0,0,1,13.11,3.46"/><line class="cls-17" x1="26.85" y1="490.81" x2="65.13" y2="490.81"/><line class="cls-17" x1="26.85" y1="502.52" x2="65.13" y2="502.52"/><path class="cls-18" d="M816.52,98.64a26.56,26.56,0,0,1-13.11,3.46c-15.3,0-27.7-13-27.7-29s12.4-29,27.7-29a26.56,26.56,0,0,1,13.11,3.46"/><line class="cls-18" x1="768.96" y1="67.2" x2="807.24" y2="67.2"/><line class="cls-18" x1="768.96" y1="78.91" x2="807.24" y2="78.91"/><g class="cls-15"><path class="cls-19" d="M50.85,125.9a15.41,15.41,0,0,0-26,11.2c0,6.83,2.52,13.7,2.52,22.21s-4.92,15.4-11,15.4H54.8"/><line class="cls-19" x1="16.34" y1="150.12" x2="43.51" y2="150.12"/></g><path class="cls-17" d="M756.44,312.47a15.41,15.41,0,0,0-26,11.2c0,6.83,2.52,13.7,2.52,22.21s-4.92,15.4-11,15.4h38.41"/><line class="cls-17" x1="721.94" y1="336.68" x2="749.1" y2="336.68"/><line class="cls-20" x1="41.77" y1="283.23" x2="67.93" y2="317.42"/><polyline class="cls-20" points="94.09 283.23 67.93 317.42 67.93 355.16"/><line class="cls-20" x1="48.47" y1="317.42" x2="87.39" y2="317.42"/><line class="cls-20" x1="48.47" y1="327.33" x2="87.39" y2="327.33"/><line class="cls-3" x1="41.77" y1="283.23" x2="67.93" y2="317.42"/><polyline class="cls-3" points="94.09 283.23 67.93 317.42 67.93 355.16"/><line class="cls-3" x1="48.47" y1="317.42" x2="87.39" y2="317.42"/><line class="cls-3" x1="48.47" y1="327.33" x2="87.39" y2="327.33"/><line class="cls-21" x1="739.89" y1="537.8" x2="764.72" y2="570.25"/><polyline class="cls-21" points="789.55 537.8 764.72 570.25 764.72 606.07"/><line class="cls-21" x1="746.25" y1="570.25" x2="783.19" y2="570.25"/><line class="cls-21" x1="746.25" y1="579.66" x2="783.19" y2="579.66"/></g></g></svg>