<svg xmlns="http://www.w3.org/2000/svg" viewBox="0 0 902.35 603.22"><defs><style>.cls-1{fill:#bbdfd0;}.cls-2{fill:#8ec5c3;}.cls-3{fill:#fce18b;}.cls-4{fill:#ddefe7;}.cls-5{fill:#fdebb1;}.cls-18,.cls-6{fill:#e4b030;}.cls-6{opacity:0.5;}.cls-7{fill:#6c9ba9;}.cls-8{fill:#fff;opacity:0.3;}.cls-10,.cls-11,.cls-12,.cls-13,.cls-14,.cls-15,.cls-16,.cls-20,.cls-22,.cls-9{fill:none;}.cls-9{stroke:#6c9ba9;stroke-miterlimit:10;}.cls-12,.cls-15,.cls-9{stroke-width:1.84px;}.cls-10{stroke:#fbd764;stroke-width:1.68px;}.cls-10,.cls-11,.cls-12,.cls-13,.cls-15,.cls-16,.cls-20,.cls-21,.cls-22{stroke-linecap:round;}.cls-10,.cls-11,.cls-12,.cls-13,.cls-14,.cls-15,.cls-16,.cls-20,.cls-21,.cls-22{stroke-linejoin:round;}.cls-11,.cls-13,.cls-14,.cls-15{stroke:#438bad;}.cls-11{stroke-width:1.68px;}.cls-12{stroke:#84d1d4;}.cls-13,.cls-14{stroke-width:1.84px;}.cls-16,.cls-22{stroke:#fff;}.cls-16{stroke-width:2.34px;}.cls-17{fill:#82c3b8;}.cls-19{fill:#fef3d0;}.cls-20,.cls-21{stroke:#b1800a;stroke-width:3.69px;}.cls-21{fill:#b1800a;}.cls-22{stroke-width:2.23px;}</style></defs><title>Asset 1</title><g id="Layer_2" data-name="Layer 2"><g id="graphic"><path class="cls-1" d="M270.15,556c-9,1.14-16.23-8.89-9.66-18.15a3.48,3.48,0,0,1,.82-.82c9.26-6.56,19.29.63,18.15,9.66A10.82,10.82,0,0,1,270.15,556Z"/><circle class="cls-2" cx="833.42" cy="477.95" r="9"/><circle class="cls-2" cx="884.43" cy="397.03" r="9"/><circle class="cls-3" cx="719.24" cy="522.87" r="9"/><circle class="cls-4" cx="346.93" cy="52.26" r="7.2"/><circle class="cls-4" cx="893.35" cy="257.37" r="7.2"/><circle class="cls-5" cx="547.35" cy="530.5" r="5.4"/><circle class="cls-4" cx="451.68" cy="584.71" r="5.4"/><circle class="cls-4" cx="48.34" cy="358.87" r="7.2"/><circle class="cls-6" cx="801.98" cy="397.03" r="14.4"/><circle class="cls-7" cx="69.04" cy="423.36" r="12.81"/><circle class="cls-1" cx="370.59" cy="548.72" r="16.01"/><circle class="cls-2" cx="613.49" cy="538.88" r="16.01"/><circle class="cls-4" cx="752.7" cy="77.7" r="16.01"/><circle class="cls-1" cx="64.34" cy="244.41" r="16.01"/><circle class="cls-5" cx="480.61" cy="523.76" r="9.61"/><circle class="cls-4" cx="186.33" cy="581.91" r="9.61"/><circle class="cls-7" cx="436.67" cy="507.54" r="9.61"/><circle class="cls-1" cx="805.58" cy="298.37" r="10.8"/><circle class="cls-2" cx="166.04" cy="189.16" r="9"/><circle class="cls-2" cx="439.78" cy="67.08" r="9"/><circle class="cls-3" cx="104.94" cy="44.86" r="9" transform="translate(19.89 120.95) rotate(-64.97)"/><circle class="cls-5" cx="9" cy="594.22" r="9"/><circle class="cls-4" cx="673.32" cy="461.9" r="7.2"/><circle class="cls-5" cx="516.36" cy="87.58" r="7.2"/><circle class="cls-5" cx="238.25" cy="40.68" r="5.4"/><circle class="cls-4" cx="475.21" cy="35.28" r="5.4"/><circle class="cls-7" cx="9" cy="228.98" r="5.4"/><circle class="cls-5" cx="819.29" cy="189.41" r="9"/><circle class="cls-1" cx="851.05" cy="134.16" r="7.2"/><circle class="cls-2" cx="279.54" cy="83.51" r="9"/><circle class="cls-5" cx="893.35" cy="60.35" r="9"/><circle class="cls-5" cx="232.85" cy="497.94" r="9"/><circle class="cls-5" cx="705.41" cy="43.63" r="9"/><circle class="cls-7" cx="742.09" cy="174.87" r="5.4"/><circle class="cls-7" cx="640.43" cy="5.4" r="5.4"/><circle class="cls-7" cx="782.18" cy="581.48" r="5.4"/><circle class="cls-1" cx="173.85" cy="72.68" r="5.4" transform="translate(34.43 199.44) rotate(-64.97)"/><circle class="cls-4" cx="198.06" cy="110.28" r="14.4" transform="translate(14.32 243.07) rotate(-64.97)"/><path class="cls-8" d="M348.86,268.62a70.7,70.7,0,0,0-10.61.8,93.7,93.7,0,0,0-180,20.16A60.13,60.13,0,1,0,143.7,408.84l0,.2H348.86a70.21,70.21,0,0,0,0-140.42Z"/><path class="cls-8" d="M704,223a51.65,51.65,0,0,0-6.72.45,81.49,81.49,0,0,0-125.76-46A108.76,108.76,0,0,0,357.34,194.7a69.81,69.81,0,1,0-39.76,130.6l-.09.27H704A51.29,51.29,0,0,0,704,223Z"/><line class="cls-9" x1="339.35" y1="372.64" x2="378.84" y2="333.15"/><circle class="cls-9" cx="347.07" cy="340.88" r="6.01"/><circle class="cls-9" cx="371.11" cy="364.92" r="6.01"/><rect class="cls-10" x="91.28" y="509.65" width="36.09" height="27.07"/><line class="cls-10" x1="109.33" y1="527.69" x2="109.33" y2="523.18"/><path class="cls-10" d="M95.79,509.65v-4.51a13.54,13.54,0,0,1,22.84-9.83"/><circle class="cls-10" cx="109.33" cy="520.93" r="2.26"/><rect class="cls-11" x="91.28" y="509.65" width="36.09" height="27.07"/><line class="cls-11" x1="109.33" y1="527.69" x2="109.33" y2="523.18"/><path class="cls-11" d="M95.79,509.65v-4.51a13.54,13.54,0,0,1,22.84-9.83"/><circle class="cls-11" cx="109.33" cy="520.93" r="2.26"/><path class="cls-12" d="M458.31,176.75a12.61,12.61,0,1,1,0-17.83"/><circle class="cls-12" cx="449.74" cy="167.84" r="25.92"/><path class="cls-9" d="M458.31,176.75a12.61,12.61,0,1,1,0-17.83"/><circle class="cls-9" cx="449.74" cy="167.84" r="25.92"/><path class="cls-13" d="M687,399.17H639a4.94,4.94,0,0,1-4.94-4.94V370.79a4.94,4.94,0,0,1,4.94-4.94h87.62a4.94,4.94,0,0,1,4.94,4.94v17.35"/><line class="cls-13" x1="648.91" y1="375.1" x2="648.91" y2="389.91"/><line class="cls-13" x1="655.11" y1="378.45" x2="642.72" y2="386.57"/><line class="cls-13" x1="655.07" y1="386.62" x2="642.75" y2="378.4"/><line class="cls-13" x1="671.13" y1="375.1" x2="671.13" y2="389.91"/><line class="cls-13" x1="677.32" y1="378.45" x2="664.94" y2="386.57"/><line class="cls-13" x1="677.29" y1="386.62" x2="664.96" y2="378.4"/><rect class="cls-13" x="694.57" y="402.87" width="37.02" height="29.62"/><line class="cls-13" x1="712.98" y1="422.45" x2="712.98" y2="415.04"/><path class="cls-13" d="M701.87,402.88v-3.7a11.11,11.11,0,0,1,22.21,0v3.7"/><path class="cls-14" d="M714.83,413.19A1.85,1.85,0,0,1,713,415h0a1.85,1.85,0,0,1-1.85-1.85h0a1.85,1.85,0,0,1,1.85-1.85h0a1.85,1.85,0,0,1,1.85,1.85Z"/><circle class="cls-15" cx="254.29" cy="168.7" r="6.17"/><path class="cls-15" d="M292.54,147.72l3.7-3.7-6.17-6.17,3.7-3.7a3.49,3.49,0,1,0-4.94-4.94L261.09,157A13.61,13.61,0,1,0,266,161.9L279,149l4.94,4.93,3.7-3.7-4.94-4.94,3.7-3.7Z"/><circle class="cls-16" cx="319.38" cy="490.05" r="7.7"/><path class="cls-16" d="M367.14,463.86l4.62-4.62-7.7-7.7,4.62-4.62a4.36,4.36,0,1,0-6.16-6.16L327.87,475.4a17,17,0,1,0,6.16,6.16l16.16-16.16,6.16,6.16,4.62-4.62-6.16-6.16,4.62-4.62Z"/><path class="cls-17" d="M564.56,297.36V275.42a32.53,32.53,0,0,0-65.06,0v21.94H480.1V275.42a51.93,51.93,0,0,1,103.85,0v21.94Z"/><rect class="cls-18" x="462.85" y="295.5" width="138.22" height="103.67" rx="6.64" ry="6.64"/><polygon class="cls-19" points="507.57 379 483.18 379 515.7 354.6 540.09 354.6 507.57 379"/><polygon class="cls-19" points="548.22 379 523.83 379 556.35 354.6 580.75 354.6 548.22 379"/><polygon class="cls-19" points="601.07 379 564.49 379 597.01 354.6 601.07 354.6 601.07 379"/><polygon class="cls-19" points="462.85 354.6 499.44 354.6 466.92 379 462.85 379 462.85 354.6"/><line class="cls-20" x1="531.96" y1="364.61" x2="531.96" y2="347.34"/><circle class="cls-21" cx="531.96" cy="338.7" r="8.64"/><rect class="cls-22" x="611.19" y="83.51" width="47.67" height="35.76"/><line class="cls-22" x1="635.03" y1="107.34" x2="635.03" y2="101.38"/><path class="cls-22" d="M617.15,83.51v-6a17.88,17.88,0,1,1,35.76,0v6"/><circle class="cls-22" cx="635.03" cy="98.4" r="2.98"/></g></g></svg>