<svg xmlns="http://www.w3.org/2000/svg" viewBox="0 0 824.34 588.93"><defs><style>.cls-1{fill:#e6ae3a;}.cls-2{fill:#eebb4b;}.cls-3{fill:#ff5f5a;}.cls-4{fill:#84d1d4;}.cls-5{fill:#7f9183;}.cls-6{fill:#fdebb1;}.cls-16,.cls-18,.cls-19,.cls-20,.cls-21,.cls-22,.cls-23,.cls-24,.cls-25,.cls-26,.cls-7{fill:none;}.cls-7{stroke:#bbdfd0;stroke-miterlimit:10;stroke-width:8px;}.cls-8{fill:#6c9ba9;}.cls-9{fill:#8ec5c3;}.cls-10{fill:#ddefe7;}.cls-11{fill:#fef4d5;}.cls-12{fill:#ace0d1;}.cls-13{fill:#bbdfd0;}.cls-14{fill:#ff9100;}.cls-15{fill:#5ebe55;}.cls-16{stroke:#fff;}.cls-16,.cls-18,.cls-19,.cls-20,.cls-21,.cls-22,.cls-23,.cls-24,.cls-25,.cls-26{stroke-linecap:round;stroke-linejoin:round;}.cls-16,.cls-18{stroke-width:4px;}.cls-17{fill:#f4374b;}.cls-18,.cls-19,.cls-20,.cls-21,.cls-22,.cls-23,.cls-24,.cls-25,.cls-26{stroke:#c0993a;}.cls-19,.cls-20,.cls-21,.cls-22,.cls-23,.cls-24,.cls-25{stroke-width:6px;}.cls-20{stroke-dasharray:0 21.06;}.cls-21{stroke-dasharray:0 20.36;}.cls-22{stroke-dasharray:0 19.69;}.cls-23{stroke-dasharray:0 19.85;}.cls-24{stroke-dasharray:0 18.59;}.cls-25{stroke-dasharray:0 20.32;}.cls-26{stroke-width:4.5px;}</style></defs><title>Asset 1</title><g id="Layer_2" data-name="Layer 2"><g id="graphics"><path class="cls-1" d="M104.94,236.75a24.55,24.55,0,0,1-14-4.43v7.55a14,14,0,0,0,28,0v-7.55A24.55,24.55,0,0,1,104.94,236.75Z"/><ellipse class="cls-2" cx="104.94" cy="205.88" rx="27.1" ry="30.88"/><path class="cls-3" d="M119.92,236.75h-1v3.12a14,14,0,0,1-28,0v-3.12H90a31.89,31.89,0,0,0-31.89,31.89h93.74A31.89,31.89,0,0,0,119.92,236.75Z"/><path class="cls-1" d="M204.19,381.16a24.55,24.55,0,0,1-14-4.43v7.55a14,14,0,0,0,28,0v-7.55A24.55,24.55,0,0,1,204.19,381.16Z"/><ellipse class="cls-2" cx="204.19" cy="350.28" rx="27.1" ry="30.88"/><path class="cls-4" d="M219.16,381.16h-1v3.12a14,14,0,0,1-28,0v-3.12h-1A31.89,31.89,0,0,0,157.32,413h93.74A31.89,31.89,0,0,0,219.16,381.16Z"/><path class="cls-1" d="M550.17,500.93a24.55,24.55,0,0,1-14-4.43V504a14,14,0,0,0,28,0v-7.55A24.55,24.55,0,0,1,550.17,500.93Z"/><ellipse class="cls-2" cx="550.17" cy="470.05" rx="27.1" ry="30.88"/><path class="cls-5" d="M565.15,500.93h-1V504a14,14,0,0,1-28,0v-3.12h-1a31.89,31.89,0,0,0-31.89,31.89H597A31.89,31.89,0,0,0,565.15,500.93Z"/><path class="cls-1" d="M716.77,240.49a24.55,24.55,0,0,1-14-4.43v7.55a14,14,0,0,0,28,0v-7.55A24.55,24.55,0,0,1,716.77,240.49Z"/><ellipse class="cls-2" cx="716.77" cy="209.61" rx="27.1" ry="30.88"/><path class="cls-6" d="M731.75,240.49h-1v3.12a14,14,0,0,1-28,0v-3.12h-1a31.89,31.89,0,0,0-31.89,31.89h93.74A31.89,31.89,0,0,0,731.75,240.49Z"/><circle class="cls-5" cx="241.74" cy="506.97" r="9.13" transform="translate(-313.01 419.15) rotate(-55.51)"/><circle class="cls-7" cx="615.33" cy="313.47" r="22.45"/><circle class="cls-5" cx="132.14" cy="154.26" r="4.56"/><circle class="cls-8" cx="49.71" cy="297.62" r="8.11"/><circle class="cls-9" cx="634.6" cy="516.71" r="10.13"/><circle class="cls-9" cx="632.71" cy="373.15" r="5.07"/><circle class="cls-10" cx="607.22" cy="580.83" r="8.11"/><circle class="cls-6" cx="771.58" cy="205.88" r="6.08"/><circle class="cls-11" cx="43.62" cy="226.22" r="6.08"/><circle class="cls-6" cx="437.14" cy="400.14" r="6.08"/><circle class="cls-6" cx="390.96" cy="365.27" r="29.24"/><circle class="cls-11" cx="73.61" cy="433.73" r="11.67"/><circle class="cls-6" cx="64.66" cy="146.08" r="9.89"/><circle class="cls-12" cx="221.93" cy="463.24" r="16.22" transform="translate(-285.55 383.84) rotate(-55.51)"/><circle class="cls-13" cx="175.61" cy="193.34" r="16.22"/><circle class="cls-13" cx="816.23" cy="337.12" r="8.11"/><circle class="cls-13" cx="534.6" cy="574.66" r="8.11"/><circle class="cls-13" cx="171.55" cy="149.7" r="4.05"/><circle class="cls-13" cx="411.53" cy="463.24" r="4.05" transform="translate(-203.31 540.12) rotate(-55.51)"/><circle class="cls-5" cx="563.75" cy="552.17" r="4.05"/><circle class="cls-13" cx="697.55" cy="327.81" r="4.05"/><circle class="cls-13" cx="590.01" cy="358.19" r="4.05"/><circle class="cls-13" cx="90.94" cy="302.43" r="4.05"/><circle class="cls-14" cx="399.87" cy="436.83" r="8.11"/><circle class="cls-14" cx="8.11" cy="261.89" r="8.11"/><circle class="cls-14" cx="653.52" cy="343.7" r="6.58"/><circle class="cls-3" cx="708.01" cy="365.27" r="8.11"/><circle class="cls-3" cx="183.72" cy="109.51" r="8.11"/><circle class="cls-3" cx="488.91" cy="496.49" r="3.88"/><circle class="cls-3" cx="457.45" cy="374.33" r="3.88"/><circle class="cls-3" cx="85.32" cy="396.25" r="3.88"/><circle class="cls-3" cx="261.09" cy="436.83" r="3.88" transform="translate(-246.81 404.67) rotate(-55.51)"/><circle class="cls-10" cx="284.29" cy="488.63" r="8.11" transform="translate(-279.43 446.26) rotate(-55.51)"/><circle class="cls-10" cx="763.47" cy="348.1" r="8.11"/><circle class="cls-5" cx="794.56" cy="370.28" r="4.05"/><circle class="cls-5" cx="347.15" cy="404.19" r="4.05"/><circle class="cls-5" cx="16.22" cy="203.73" r="4.05"/><circle class="cls-8" cx="166.59" cy="455.13" r="4.05" transform="translate(-302.88 334.72) rotate(-55.51)"/><circle class="cls-8" cx="777.66" cy="220.14" r="4.05"/><circle class="cls-15" cx="763.64" cy="275.66" r="25.6"/><polyline class="cls-16" points="774.77 267.87 758.08 283.45 752.51 277.89"/><circle class="cls-15" cx="249.96" cy="414.01" r="25.6"/><polyline class="cls-16" points="261.09 406.22 244.39 421.8 238.82 416.23"/><circle class="cls-15" cx="154.17" cy="264.5" r="25.6"/><polyline class="cls-16" points="165.3 256.71 148.61 272.29 143.04 266.73"/><circle class="cls-17" cx="599.63" cy="532.82" r="25.6"/><line class="cls-16" x1="589.63" y1="522.82" x2="609.63" y2="542.82"/><line class="cls-16" x1="609.63" y1="522.82" x2="589.63" y2="542.82"/><path class="cls-18" d="M409.15,79.78c5.6,28-2.8,55.27-20.29,75.56"/><path class="cls-18" d="M390.26,84h0c-2.1-11.19,4.9-21.69,15.39-23.79a19.8,19.8,0,0,1,23.09,15.39h0A104.67,104.67,0,0,1,412,157.44"/><path class="cls-18" d="M391,96.57c0,19.59-7.7,37.78-21.69,50.37"/><path class="cls-18" d="M449,113.36c-2.1,14-5.6,27.29-11.89,39.18"/><path class="cls-18" d="M449.73,100.77a197.85,197.85,0,0,0-2.1-28.68h0a39.24,39.24,0,0,0-77,15.39h0A50.11,50.11,0,0,1,353.88,135"/><path class="cls-18" d="M430.14,25.21a58,58,0,0,1,36.38,42.68h0a141.57,141.57,0,0,1-2.1,66.47"/><path class="cls-18" d="M351.78,67.18c5.6-21.69,22.39-39.88,45.48-44.78a66.59,66.59,0,0,1,20.29-.7"/><path class="cls-18" d="M350.38,79.08c0,4.2,0,8.4,1.4,12.59h0a29.55,29.55,0,0,1-9.79,28"/><path class="cls-18" d="M486.81,81.18a135.86,135.86,0,0,0-1.4-16.79h0c-8.4-42-49.67-69.26-91.65-60.87a73.45,73.45,0,0,0-30.08,13.29"/><path class="cls-18" d="M353.88,24.51C335.69,42,327.29,68.58,332.19,95.17h0c0,1.4.7,2.1.7,3.5"/><line class="cls-19" x1="336.14" y1="155.97" x2="336.14" y2="155.97"/><line class="cls-20" x1="317.46" y1="165.69" x2="196.02" y2="228.85"/><line class="cls-19" x1="186.68" y1="233.71" x2="186.68" y2="233.71"/><line class="cls-19" x1="384.72" y1="180.47" x2="384.72" y2="180.47"/><line class="cls-21" x1="372.34" y1="196.63" x2="254.7" y2="350.12"/><line class="cls-19" x1="248.51" y1="358.19" x2="248.51" y2="358.19"/><line class="cls-19" x1="430.14" y1="180.47" x2="430.14" y2="180.47"/><line class="cls-22" x1="425.82" y1="199.68" x2="402.03" y2="305.33"/><line class="cls-19" x1="399.87" y1="314.94" x2="399.87" y2="314.94"/><line class="cls-19" x1="468.19" y1="185.98" x2="468.19" y2="185.98"/><line class="cls-23" x1="472.34" y1="205.39" x2="516" y2="409.18"/><line class="cls-19" x1="518.08" y1="418.89" x2="518.08" y2="418.89"/><line class="cls-19" x1="523.07" y1="195.28" x2="523.07" y2="195.28"/><line class="cls-24" x1="534.23" y1="210.16" x2="584.43" y2="277.09"/><line class="cls-19" x1="590.01" y1="284.53" x2="590.01" y2="284.53"/><line class="cls-19" x1="561.33" y1="157.44" x2="561.33" y2="157.44"/><line class="cls-25" x1="579.21" y1="167.09" x2="677.6" y2="220.17"/><line class="cls-19" x1="686.54" y1="224.99" x2="686.54" y2="224.99"/><circle class="cls-26" cx="518.08" cy="129.05" r="37.2"/><circle class="cls-26" cx="518.08" cy="129.05" r="4.8"/><line class="cls-26" x1="518.08" y1="99.87" x2="518.08" y2="103.74"/><line class="cls-26" x1="497.45" y1="108.42" x2="500.19" y2="111.15"/><line class="cls-26" x1="488.91" y1="129.05" x2="492.77" y2="129.05"/><line class="cls-26" x1="547.26" y1="129.05" x2="543.39" y2="129.05"/><line class="cls-26" x1="506.92" y1="102.09" x2="508.4" y2="105.66"/><line class="cls-26" x1="529.25" y1="102.09" x2="527.77" y2="105.66"/><line class="cls-26" x1="491.13" y1="117.88" x2="494.7" y2="119.36"/><line class="cls-26" x1="545.04" y1="117.88" x2="541.47" y2="119.36"/><line class="cls-26" x1="491.13" y1="140.21" x2="494.7" y2="138.73"/><line class="cls-26" x1="545.04" y1="140.21" x2="541.47" y2="138.73"/><line class="cls-26" x1="538.71" y1="108.42" x2="521.92" y2="125.21"/></g></g></svg>