<svg xmlns="http://www.w3.org/2000/svg" viewBox="0 0 853.1 595.05"><defs><style>.cls-1,.cls-13,.cls-9{fill:none;stroke-miterlimit:10;}.cls-1,.cls-9{stroke:#7cc9bc;}.cls-1{stroke-width:3.35px;}.cls-2{fill:#ebf6f1;}.cls-3{fill:#8ec5c3;}.cls-4{fill:#fce18b;}.cls-5{fill:#fdebb1;}.cls-6{fill:#6c9ba9;}.cls-7{fill:#fbd764;}.cls-8{fill:#7f9183;}.cls-13,.cls-9{stroke-width:4.27px;}.cls-10{fill:#82c3b8;}.cls-11{fill:#ace0d1;}.cls-12{fill:#a3ccbc;}.cls-13{stroke:#6c9ba9;}</style></defs><title>Asset 1</title><g id="Layer_2" data-name="Layer 2"><g id="graphics"><circle class="cls-1" cx="672.02" cy="254.97" r="13.38"/><circle class="cls-2" cx="715.37" cy="75.74" r="5.02"/><circle class="cls-3" cx="4.18" cy="189.29" r="4.18"/><circle class="cls-3" cx="707.55" cy="383.09" r="4.18"/><circle class="cls-4" cx="667.3" cy="391.87" r="4.18"/><circle class="cls-5" cx="636.69" cy="368.44" r="4.18"/><circle class="cls-5" cx="737.69" cy="403.17" r="4.18"/><circle class="cls-2" cx="669.91" cy="431.99" r="3.35"/><circle class="cls-2" cx="798.9" cy="395.22" r="3.35"/><circle class="cls-5" cx="850.59" cy="352.82" r="2.51"/><circle class="cls-2" cx="105.1" cy="210.79" r="2.51"/><circle class="cls-6" cx="809.1" cy="134.77" r="2.51"/><circle class="cls-6" cx="641.09" cy="420.31" r="2.51"/><circle class="cls-7" cx="628.73" cy="168.52" r="6.69"/><circle class="cls-6" cx="604.39" cy="207.55" r="5.95"/><circle class="cls-8" cx="766.58" cy="372.63" r="8.93"/><circle class="cls-2" cx="658.56" cy="338.36" r="7.44"/><circle class="cls-3" cx="774.94" cy="155.34" r="7.44"/><circle class="cls-5" cx="645.09" cy="85.03" r="7.44"/><circle class="cls-2" cx="44.84" cy="166.28" r="5.95"/><circle class="cls-5" cx="726.49" cy="152.83" r="4.46"/><circle class="cls-2" cx="633.19" cy="212.01" r="4.46"/><circle class="cls-6" cx="810.06" cy="350.03" r="4.46"/><circle class="cls-6" cx="682.85" cy="112.51" r="4.46"/><circle class="cls-7" cx="85.63" cy="185.18" r="11.9"/><path class="cls-2" d="M546.54,515.47a31,31,0,0,1-12.94-5.25l-7.53,7.64-7.36-7.34,7.49-7.59a31.15,31.15,0,0,1-5.49-13l-10.57,0,0-10.42,10.57,0A31.16,31.16,0,0,1,526,466.4l-7.54-7.53,7.3-7.4,7.59,7.57a31,31,0,0,1,12.91-5.36l0-10.83,10.36,0,0,10.88A31,31,0,0,1,569.5,459l7.63-7.73,7.36,7.34-7.62,7.73a31.16,31.16,0,0,1,5.38,12.89l10.81,0,0,10.42-10.81,0A31.16,31.16,0,0,1,577,502.58l7.69,7.67-7.3,7.4L569.7,510a31,31,0,0,1-12.8,5.41l0,10.89-10.36,0Zm4.85-51.57a20.67,20.67,0,1,0,20.7,20.58A20.64,20.64,0,0,0,551.39,463.89Z"/><path class="cls-2" d="M194.8,390.79a30.94,30.94,0,0,1-14-.25l-4.33,9.84L167,396.17l4.3-9.78a31,31,0,0,1-9.75-10.19L151.74,380,148,370.31l9.85-3.84a31.24,31.24,0,0,1,.38-14.15L148.52,348l4.19-9.53,9.78,4.35a31.19,31.19,0,0,1,10.15-9.64l-3.89-10.1,9.66-3.76,3.9,10.14a31,31,0,0,1,13.89.35l4.38-10,9.48,4.21-4.38,10a31,31,0,0,1,9.6,10.11l10.08-3.92,3.74,9.72L219,353.84a31.23,31.23,0,0,1-.35,14l9.91,4.41-4.19,9.53-9.92-4.41a31.19,31.19,0,0,1-10,9.65l3.91,10.16-9.66,3.76ZM181,340.87a20.65,20.65,0,1,0,26.64,11.79A20.74,20.74,0,0,0,181,340.87Z"/><path class="cls-2" d="M549.59,232.51a30.94,30.94,0,0,1-14-.25l-4.33,9.84-9.48-4.21,4.3-9.78a31,31,0,0,1-9.75-10.19l-9.86,3.84L502.78,212l9.85-3.84A31.24,31.24,0,0,1,513,194l-9.72-4.32,4.19-9.53,9.78,4.35a31.19,31.19,0,0,1,10.15-9.64l-3.89-10.1L533.2,161l3.9,10.14a31,31,0,0,1,13.89.35l4.38-10,9.48,4.21-4.38,10a31,31,0,0,1,9.6,10.11l10.08-3.92,3.74,9.72-10.08,3.92a31.23,31.23,0,0,1-.35,14l9.91,4.41-4.19,9.53-9.92-4.41a31.19,31.19,0,0,1-10,9.65l3.91,10.16-9.66,3.76Zm-13.77-49.92a20.65,20.65,0,1,0,26.64,11.79A20.74,20.74,0,0,0,535.81,182.59Z"/><ellipse class="cls-9" cx="327.08" cy="494.53" rx="17.01" ry="17.11" transform="matrix(1, 0, 0, 1, -1.99, 1.32)"/><ellipse class="cls-2" cx="381.27" cy="265.13" rx="6.38" ry="6.42" transform="translate(-1.06 1.54) rotate(-0.23)"/><ellipse class="cls-3" cx="643.81" cy="307.95" rx="5.32" ry="5.29" transform="translate(-1.25 2.63) rotate(-0.23)"/><ellipse class="cls-3" cx="518.35" cy="564.19" rx="5.32" ry="5.35" transform="translate(-2.27 2.09) rotate(-0.23)"/><ellipse class="cls-4" cx="446.35" cy="480.14" rx="5.32" ry="5.35" transform="translate(-1.93 1.8) rotate(-0.23)"/><ellipse class="cls-5" cx="407.31" cy="450.34" rx="5.32" ry="5.35" transform="matrix(1, 0, 0, 1, -1.81, 1.64)"/><ellipse class="cls-5" cx="556.77" cy="589.71" rx="5.32" ry="5.35" transform="matrix(1, 0, 0, 1, -2.37, 2.25)"/><ellipse class="cls-2" cx="449.88" cy="531.42" rx="4.25" ry="4.28" transform="translate(-2.14 1.82) rotate(-0.23)"/><ellipse class="cls-2" cx="590.93" cy="296.26" rx="3.19" ry="3.21" transform="translate(-1.19 2.38) rotate(-0.23)"/><ellipse class="cls-6" cx="413.18" cy="516.65" rx="3.19" ry="3.21" transform="translate(-2.08 1.67) rotate(-0.23)"/><ellipse class="cls-7" cx="271.61" cy="384.22" rx="8.51" ry="8.56" transform="translate(-1.55 1.1) rotate(-0.23)"/><path class="cls-6" d="M478.84,326.23l16.49-.07.07,17.33a49.35,49.35,0,0,1,20.44,8.44L528,339.61,539.7,351.3l-12.14,12.31a49.58,49.58,0,0,1,8.57,20.5l17.2-.07.07,16.59-17.2.07a49.59,49.59,0,0,1-8.4,20.58L540,433.48l-11.62,11.78L516.18,433a49.38,49.38,0,0,1-20.38,8.62l.07,17.31-16.49.07-.07-17.24a49.34,49.34,0,0,1-20.61-8.36l-12,12.15L435,433.91l11.91-12.07a49.59,49.59,0,0,1-8.73-20.74l-16.81.07-.07-16.59,16.82-.07a49.58,49.58,0,0,1,8.57-20.8l-12-12,11.61-11.78L458.38,352a49.36,49.36,0,0,1,20.53-8.52ZM520,392.48a32.81,32.81,0,1,0-32.68,33A32.85,32.85,0,0,0,520,392.48Z"/><path class="cls-8" d="M251.83,401.41l13.32-.05.06,14a39.86,39.86,0,0,1,16.5,6.82l9.81-10,9.46,9.43-9.81,9.94a40,40,0,0,1,6.92,16.56L312,448.1l.05,13.4-13.89.06a40.05,40.05,0,0,1-6.78,16.62l9.88,9.85-9.38,9.51L282,487.68a39.88,39.88,0,0,1-16.46,7l.06,14-13.32.05-.06-13.92A39.85,39.85,0,0,1,235.56,488l-9.67,9.81-9.46-9.43,9.61-9.75a40,40,0,0,1-7-16.75l-13.58.06-.05-13.4,13.58-.06a40,40,0,0,1,6.92-16.8l-9.7-9.68,9.38-9.51,9.76,9.74a39.86,39.86,0,0,1,16.58-6.88Zm33.22,53.5a26.5,26.5,0,1,0-26.39,26.67A26.53,26.53,0,0,0,285.05,454.92Z"/><path class="cls-10" d="M360.67,293.21l16.3,2.52-2.61,17.13a49.46,49.46,0,0,1,18.88,11.54l13.91-10.27,9.76,13.37L403,337.76a49.66,49.66,0,0,1,5.3,21.59l17,2.62-2.5,16.4-17-2.62a49.49,49.49,0,0,1-11.48,19l10.19,14-13.3,9.82-10.2-14a49.3,49.3,0,0,1-21.47,5.32L356.95,427l-16.3-2.52,2.6-17A49.45,49.45,0,0,1,324.18,396l-13.71,10.12-9.76-13.37,13.63-10.06a49.67,49.67,0,0,1-5.41-21.85l-16.62-2.56,2.5-16.4,16.62,2.57a49.47,49.47,0,0,1,11.68-19.2l-10-13.72,13.29-9.82,10.07,13.81a49.28,49.28,0,0,1,21.6-5.2ZM391,365.1a32.82,32.82,0,1,0-37.39,27.5A32.92,32.92,0,0,0,391,365.1Z"/><path class="cls-11" d="M472.19,19.5,482.07,21l-1.58,10.39a30,30,0,0,1,11.45,7l8.43-6.23,5.92,8.11-8.43,6.22a30.11,30.11,0,0,1,3.21,13.09l10.31,1.59-1.52,9.94-10.31-1.59a30,30,0,0,1-7,11.53l6.18,8.47-8.06,6L484.53,87a29.89,29.89,0,0,1-13,3.23l-1.58,10.37-9.88-1.53,1.58-10.33a30,30,0,0,1-11.56-7l-8.31,6.14-5.92-8.11,8.26-6.1a30.12,30.12,0,0,1-3.28-13.25l-10.08-1.56L432.26,49l10.08,1.56a30,30,0,0,1,7.08-11.64l-6.07-8.32,8.06-6L457.52,33a29.88,29.88,0,0,1,13.1-3.15Zm18.42,43.59a19.9,19.9,0,1,0-22.67,16.68A20,20,0,0,0,490.61,63.09Z"/><path class="cls-6" d="M569.76,94.43l8.91.05-.05,9.36a26.66,26.66,0,0,1,11,4.67l6.63-6.59,6.26,6.37-6.62,6.59A26.79,26.79,0,0,1,600.41,126l9.29.05-.05,9-9.29-.05A26.79,26.79,0,0,1,595.71,146l6.54,6.66-6.34,6.3-6.55-6.66a26.67,26.67,0,0,1-11.05,4.55l-.05,9.35-8.91-.05.05-9.31a26.66,26.66,0,0,1-11.09-4.63l-6.53,6.5-6.26-6.37L552,145.9a26.79,26.79,0,0,1-4.61-11.25l-9.08-.05.05-9,9.09.05a26.78,26.78,0,0,1,4.74-11.19L545.77,108l6.34-6.3,6.47,6.58a26.66,26.66,0,0,1,11.13-4.49Zm21.87,36a17.73,17.73,0,1,0-17.83,17.67A17.75,17.75,0,0,0,591.64,130.43Z"/><path class="cls-10" d="M69,281l11.32,1.75-1.81,11.9a34.35,34.35,0,0,1,13.11,8l9.66-7.13,6.78,9.29-9.65,7.13a34.49,34.49,0,0,1,3.68,15l11.81,1.82-1.74,11.39-11.81-1.82a34.37,34.37,0,0,1-8,13.21l7.08,9.7L90.25,368l-7.08-9.71A34.24,34.24,0,0,1,68.25,362l-1.81,11.88-11.32-1.75,1.8-11.83a34.35,34.35,0,0,1-13.24-8l-9.52,7-6.78-9.29,9.47-7a34.5,34.5,0,0,1-3.76-15.18l-11.54-1.78,1.74-11.39,11.55,1.78a34.36,34.36,0,0,1,8.11-13.34l-7-9.53,9.23-6.82,7,9.59a34.23,34.23,0,0,1,15-3.61Zm21.1,49.93a22.79,22.79,0,1,0-26,19.1A22.87,22.87,0,0,0,90.13,330.91Z"/><ellipse class="cls-6" cx="190.58" cy="421.27" rx="7.57" ry="7.61" transform="translate(-1.72 0.78) rotate(-0.23)"/><ellipse class="cls-8" cx="593.34" cy="550.5" rx="11.35" ry="11.42" transform="translate(-2.24 2.42) rotate(-0.23)"/><ellipse class="cls-2" cx="578.2" cy="345.11" rx="9.46" ry="9.51" transform="translate(-1.4 2.36) rotate(-0.23)"/><ellipse class="cls-2" cx="621.93" cy="258.71" rx="7.57" ry="7.61" transform="matrix(1, 0, 0, 1, -1.05, 2.54)"/><ellipse class="cls-5" cx="639.76" cy="465.57" rx="5.67" ry="5.71" transform="matrix(1, 0, 0, 1, -1.89, 2.61)"/><ellipse class="cls-2" cx="370.71" cy="454.38" rx="5.67" ry="5.71" transform="translate(-1.85 1.51) rotate(-0.23)"/><ellipse class="cls-6" cx="634.08" cy="509.15" rx="5.67" ry="5.71" transform="translate(-2.07 2.59) rotate(-0.23)"/><ellipse class="cls-6" cx="584.09" cy="414.24" rx="5.67" ry="5.71" transform="matrix(1, 0, 0, 1, -1.68, 2.38)"/><ellipse class="cls-7" cx="552.83" cy="282.59" rx="10.42" ry="10.48" transform="translate(-1.15 2.26) rotate(-0.23)"/><path class="cls-8" d="M269.7,111.14a90.07,90.07,0,0,1,44.4,18.29l16.51-16.74,16.12,16.09-16.51,16.74A91.18,91.18,0,0,1,348.77,190l23.44-.1.09,22.84-23.44.1a91.19,91.19,0,0,1-18.18,44.67l16.64,16.61-16,16.22-16.64-16.61a90.08,90.08,0,0,1-44.25,18.65l.09,23.58-22.71.09-.09-23.58a90.08,90.08,0,0,1-44.4-18.29L186.8,291l-16.12-16.09,16.51-16.74a91.18,91.18,0,0,1-18.54-44.52l-23.44.1-.09-22.84,23.44-.1a91.19,91.19,0,0,1,18.18-44.67L170.1,129.5l16-16.22,16.64,16.61A90.08,90.08,0,0,1,247,111.23l-.09-23.58,22.71-.09ZM262,133.37c-40.43-1.9-73.51,31.64-71.29,72.3,1.89,34.81,30.13,63,64.75,64.61,40.43,1.9,73.5-31.64,71.29-72.3C324.84,163.17,296.6,135,262,133.37Z"/><path class="cls-12" d="M449.33,117.22a50.88,50.88,0,0,1,21.23,8.61l12.36-12.54,12.07,12-12.28,12.46a51.1,51.1,0,0,1,9,21.37l17.34-.07.07,17.1-17.33.07A51.12,51.12,0,0,1,483,197.71l12.37,12.35-12,12.14-12.45-12.42a50.87,50.87,0,0,1-21.17,8.79l.07,17.77-17,.07-.07-17.84a50.9,50.9,0,0,1-21.08-8.71l-12.51,12.69-12.07-12,12.51-12.68a51.12,51.12,0,0,1-8.83-21.14l-17.73.07-.07-17.1,17.74-.07a51.11,51.11,0,0,1,8.67-21.2l-12.62-12.59,12-12.14,12.63,12.6a50.88,50.88,0,0,1,21-8.88l-.07-17.87,17-.07Zm-8,84.61a33.9,33.9,0,1,0-34-33.76A33.87,33.87,0,0,0,441.37,201.83Z"/><ellipse class="cls-13" cx="370.71" cy="96.98" rx="17.01" ry="17.11" transform="matrix(1, 0, 0, 1, -0.39, 1.49)"/><ellipse class="cls-2" cx="79.43" cy="256.81" rx="6.38" ry="6.42" transform="translate(-1.03 0.32) rotate(-0.23)"/><ellipse class="cls-3" cx="297.62" cy="36.5" rx="5.32" ry="5.35" transform="matrix(1, 0, 0, 1, -0.14, 1.2)"/><ellipse class="cls-4" cx="346.26" cy="55.56" rx="5.32" ry="5.35" transform="translate(-0.22 1.4) rotate(-0.23)"/><ellipse class="cls-5" cx="73.05" cy="376.45" rx="5.32" ry="5.35" transform="matrix(1, 0, 0, 1, -1.52, 0.3)"/><ellipse class="cls-5" cx="31.25" cy="266.47" rx="5.32" ry="5.29" transform="matrix(1, 0, 0, 1, -1.09, 0.13)"/><ellipse class="cls-2" cx="342.73" cy="4.28" rx="4.25" ry="4.28" transform="translate(-0.01 1.38) rotate(-0.23)"/><ellipse class="cls-5" cx="143.78" cy="119.68" rx="3.19" ry="3.21" transform="matrix(1, 0, 0, 1, -0.48, 0.58)"/><ellipse class="cls-2" cx="146.97" cy="164.72" rx="3.19" ry="3.21" transform="matrix(1, 0, 0, 1, -0.66, 0.59)"/><ellipse class="cls-6" cx="36.57" cy="378.23" rx="3.19" ry="3.17" transform="translate(-1.54 0.15) rotate(-0.23)"/><ellipse class="cls-6" cx="379.43" cy="19.05" rx="3.19" ry="3.21" transform="translate(-0.07 1.53) rotate(-0.23)"/><ellipse class="cls-7" cx="195.15" cy="84.51" rx="8.51" ry="8.56" transform="translate(-0.34 0.79) rotate(-0.23)"/></g></g></svg>