<svg id="Layer_1" data-name="Layer 1" xmlns="http://www.w3.org/2000/svg" viewBox="0 0 110.99 59.76"><defs><style>.cls-1{fill:#6ca3a9;}.cls-2{fill:#fff;}</style></defs><title>ost-logo-white</title><g id="OST-KYC---Dropdown"><g id="Group-85"><g id="ost-logo-white"><g id="Group-76"><path id="Fill-68" class="cls-1" d="M20.63,28.29a11,11,0,1,0,11,11,11,11,0,0,0-11-11m20.68,11A20.65,20.65,0,1,1,20.65,18.6,20.66,20.66,0,0,1,41.3,39.26" transform="translate(0 -0.17)"/><path id="Fill-70" class="cls-1" d="M32.21,39.26a6.33,6.33,0,1,1-6.33-6.33,6.33,6.33,0,0,1,6.33,6.33" transform="translate(0 -0.17)"/><path id="Fill-72" class="cls-1" d="M19.68,22.32a1.86,1.86,0,0,1-1.56-2.86L27.26,5.2a1.86,1.86,0,1,1,3.13,2L21.25,21.47a1.86,1.86,0,0,1-1.57.86" transform="translate(0 -0.17)"/><path id="Fill-74" class="cls-1" d="M19.68,22.32a1.86,1.86,0,0,1-1.56-2.86L27.26,5.2a1.86,1.86,0,1,1,3.13,2L21.25,21.47a1.86,1.86,0,0,1-1.57.86" transform="translate(0 -0.17)"/><path id="Fill-76" class="cls-1" d="M19.68,22.32a1.86,1.86,0,0,1-1.56-2.86L27.26,5.2a1.86,1.86,0,1,1,3.13,2L21.25,21.47a1.86,1.86,0,0,1-1.57.86" transform="translate(0 -0.17)"/><path id="Fill-78" class="cls-1" d="M33.75,8.28A5.27,5.27,0,1,1,32.16,1a5.26,5.26,0,0,1,1.59,7.28" transform="translate(0 -0.17)"/><path id="Fill-80" class="cls-1" d="M46.33,51l6.6-4.4.59.08c2,3.3,5,5.25,8.46,5.25s5.5-1.52,5.5-3.81c0-1.86-1.35-3.47-7.62-5.68C50.64,39,47.93,35.4,47.93,30c0-6.52,5.67-11.43,14.81-11.43,7.11,0,12.78,3.3,15.07,8.39L71.55,31l-.76-.08a7.8,7.8,0,0,0-7.28-4.49c-3,0-4.74,1.53-4.74,3.39s.85,3,7.7,5.68c8.8,3.47,11.76,6.86,11.76,12.62,0,6.78-6.09,11.69-15.66,11.69-7.45,0-13.12-3-16.25-8.81" transform="translate(0 -0.17)"/><path id="Fill-82" class="cls-1" d="M111,58.36a23.84,23.84,0,0,1-8.29,1.44c-8.72,0-13.46-4.4-13.46-12.88v-18H82.38V20.15h6.94V10.07l8.8-5.17h2.37V20.15h10.41v8.72H100.5V44c0,4.66,1.44,6.1,5.33,6.1a9.92,9.92,0,0,0,4.15-1l.76.42Z" transform="translate(0 -0.17)"/><path id="Fill-84" class="cls-2" d="M20.63,28.29a11,11,0,1,0,11,11,11,11,0,0,0-11-11m20.68,11A20.65,20.65,0,1,1,20.65,18.6,20.66,20.66,0,0,1,41.3,39.26" transform="translate(0 -0.17)"/><path id="Fill-86" class="cls-2" d="M32.21,39.26a6.33,6.33,0,1,1-6.33-6.33,6.33,6.33,0,0,1,6.33,6.33" transform="translate(0 -0.17)"/><path id="Fill-88" class="cls-1" d="M19.68,22.32a1.86,1.86,0,0,1-1.56-2.86L27.26,5.2a1.86,1.86,0,1,1,3.13,2L21.25,21.47a1.86,1.86,0,0,1-1.57.86" transform="translate(0 -0.17)"/><path id="Fill-90" class="cls-2" d="M19.68,22.32a1.86,1.86,0,0,1-1.56-2.86L27.26,5.2a1.86,1.86,0,1,1,3.13,2L21.25,21.47a1.86,1.86,0,0,1-1.57.86" transform="translate(0 -0.17)"/><path id="Fill-92" class="cls-2" d="M33.75,8.28A5.27,5.27,0,1,1,32.16,1a5.26,5.26,0,0,1,1.59,7.28" transform="translate(0 -0.17)"/><path id="Fill-94" class="cls-2" d="M46.33,51l6.6-4.4.59.08c2,3.3,5,5.25,8.46,5.25s5.5-1.52,5.5-3.81c0-1.86-1.35-3.47-7.62-5.68C50.64,39,47.93,35.4,47.93,30c0-6.52,5.67-11.43,14.81-11.43,7.11,0,12.78,3.3,15.07,8.39L71.55,31l-.76-.08a7.8,7.8,0,0,0-7.28-4.49c-3,0-4.74,1.53-4.74,3.39s.85,3,7.7,5.68c8.8,3.47,11.76,6.86,11.76,12.62,0,6.78-6.09,11.69-15.66,11.69-7.45,0-13.12-3-16.25-8.81" transform="translate(0 -0.17)"/><path id="Fill-96" class="cls-2" d="M111,58.36a23.84,23.84,0,0,1-8.29,1.44c-8.72,0-13.46-4.4-13.46-12.88v-18H82.38V20.15h6.94V10.07l8.8-5.17h2.37V20.15h10.41v8.72H100.5V44c0,4.66,1.44,6.1,5.33,6.1a9.92,9.92,0,0,0,4.15-1l.76.42Z" transform="translate(0 -0.17)"/></g></g></g></g></svg>