<?xml version="1.0" encoding="utf-8"?>
<!-- Generator: Adobe Illustrator 21.0.2, SVG Export Plug-In . SVG Version: 6.00 Build 0)  -->
<svg version="1.1" id="Layer_1" xmlns="http://www.w3.org/2000/svg" xmlns:xlink="http://www.w3.org/1999/xlink" x="0px" y="0px"
	 viewBox="0 0 700 174.9" style="enable-background:new 0 0 700 174.9;" xml:space="preserve">
<style type="text/css">
	.st0{enable-background:new    ;}
	.st1{fill:#E4B030;}
	.st2{fill:#34445B;}
</style>
<g class="st0">
	<path class="st1" d="M421.9,123.8l-15.8,17.6v30.1h-22.4V58.2h22.4v19.7c0,11.5-0.3,24.8-0.8,36.3h0.3c7-9.1,13.4-17,21-25.6
		l25.3-30.4h27l-41.9,48.3l43.7,65h-27L421.9,123.8z"/>
	<path class="st1" d="M518.2,125.8l-40-67.7h26.4l13.4,26.7l11.2,22.6h0.5c3.7-7.5,7.2-14.6,11-22.6l13.4-26.7h26.4l-40,67.7v45.6
		h-22.4V125.8z"/>
	<path class="st1" d="M581.4,114.8c0-35,25.9-59.7,59.5-59.7c22.6,0,40.6,9.6,51.4,29.3L675.7,95l-2.9-0.6
		c-7.4-12.5-17.3-18.1-31-18.1c-20.5,0-36,16-36,38.6c0,22.4,15.8,38.6,36.3,38.6c14.4,0,24-5.6,31.4-17.9l2.7-0.6l16.5,10.6
		c-11.4,19.7-29,29.1-51.5,29.1C607,174.5,581.4,149.7,581.4,114.8z"/>
</g>
<path id="ost_logo" class="st2" d="M67.1,54l15.2-23.7c8.3,1.7,16.4-3.6,18.2-11.8c1.7-8.3-3.6-16.4-11.8-18.2
	c-8.3-1.7-16.4,3.6-18.2,11.8c-0.9,4.3,0.1,8.8,2.7,12.3L54.3,53.9C21.2,57.2-3,86.7,0.2,119.9C3.5,153,33,177.2,66.2,174
	c33.1-3.3,57.4-32.8,54.1-66C117.5,79.7,95.3,57.3,67.1,54z M60.2,145.6c-17.6,0-31.9-14.4-31.8-32c0-17.6,14.4-31.9,32-31.8
	c13.2,0,25.1,8.2,29.8,20.6c-6.2-8-17.8-9.5-25.8-3.3S54.8,117,61,125c6.2,8,17.8,9.5,25.8,3.3c1.2-0.9,2.3-2,3.2-3.2
	C85.4,137.5,73.5,145.6,60.2,145.6z M194,102.8c-20-7.6-22.5-11.1-22.5-16.5s4.9-9.9,13.8-9.9c9.6,0,17.3,4.9,21.2,13.1l2.2,0.2
	l18.3-11.8c-6.7-14.8-23.2-24.4-44-24.4c-26.7,0-43.2,14.3-43.2,33.3c0,15.8,7.9,26.4,34.8,36.2c18.3,6.4,22.2,11.1,22.2,16.5
	c0,6.7-6.2,11.1-16.1,11.1c-10.1,0-18.8-5.7-24.7-15.3l-1.7-0.2l-19.3,12.8c9.1,16.8,25.7,25.6,47.4,25.6c27.9,0,45.7-14.3,45.7-34
	C228.4,122.7,219.7,112.9,194,102.8L194,102.8z M323.3,143.7l-2.2-1.2c-3.8,1.9-7.9,2.9-12.1,3c-11.4,0-15.6-4.2-15.6-17.7V83.5
	h30.4V58.2h-30.4V13.8h-6.9l-25.7,15v29.3h-20.3v25.4h20V136c0,24.6,13.8,37.4,39.3,37.4c8.9,0,18-1.7,24.2-4.2L323.3,143.7z"/>
</svg>
