<svg xmlns="http://www.w3.org/2000/svg" viewBox="0 0 180 188"><defs><style>.cls-1{fill:none;stroke:#e4b030;stroke-linecap:round;stroke-linejoin:round;stroke-width:4px;}</style></defs><title>Asset 1</title><g id="Layer_2" data-name="Layer 2"><g id="graphics"><polygon class="cls-1" points="98 82 138 66 138 14 98 26 58 14 58 66 98 82"/><polyline class="cls-1" points="138 14 98 2 58 14"/><line class="cls-1" x1="98" y1="25.71" x2="98" y2="81.71"/><polygon class="cls-1" points="146 150 178 134 178 98 146 110 114 98 114 134 146 150"/><polyline class="cls-1" points="178 98 146 86 114 98"/><line class="cls-1" x1="146" y1="109.71" x2="146" y2="149.71"/><polygon class="cls-1" points="50 186 98 170 98 106 50 122 2 106 2 170 50 186"/><polyline class="cls-1" points="98 106 50 90 2 106"/><line class="cls-1" x1="50" y1="121.71" x2="50" y2="185.71"/></g></g></svg>