<svg xmlns="http://www.w3.org/2000/svg" viewBox="0 0 172 188"><defs><style>.cls-1,.cls-2,.cls-3{fill:none;stroke:#e4b030;}.cls-1,.cls-3{stroke-linecap:round;stroke-linejoin:round;}.cls-1,.cls-2{stroke-width:4.36px;}.cls-2{stroke-miterlimit:10;}.cls-3{stroke-width:4px;}</style></defs><title>Asset 6</title><g id="Layer_2" data-name="Layer 2"><g id="graphics"><path class="cls-1" d="M108.91,127.09A13.09,13.09,0,1,1,122,140.18v13.09"/><path class="cls-2" d="M124.18,164.18a2.18,2.18,0,0,1-2.18,2.18h0a2.18,2.18,0,0,1-2.18-2.18h0A2.18,2.18,0,0,1,122,162h0a2.18,2.18,0,0,1,2.18,2.18Z"/><path class="cls-3" d="M66,186H18A16,16,0,0,1,2,170V22"/><path class="cls-3" d="M154,2H18a16,16,0,0,0,0,32H154V70"/><path class="cls-3" d="M170,138a48,48,0,1,1-48-48A48,48,0,0,1,170,138Z"/><line class="cls-3" x1="18" y1="18" x2="146" y2="18"/><path class="cls-3" d="M108.91,127.09A13.09,13.09,0,1,1,122,140.18v13.09"/><path class="cls-3" d="M124.18,164.18a2.18,2.18,0,0,1-2.18,2.18h0a2.18,2.18,0,0,1-2.18-2.18h0A2.18,2.18,0,0,1,122,162h0a2.18,2.18,0,0,1,2.18,2.18Z"/></g></g></svg>