<svg xmlns="http://www.w3.org/2000/svg" width="30" height="30" viewBox="0 0 55 55">
    <g fill="none" fill-rule="evenodd">
        <circle cx="27.5" cy="27.5" r="27.5" fill="#FF5F59"/>
        <path fill="#FFF" d="M26.029 29.763l-.555-8.838c-.105-1.723-.157-2.959-.157-3.71 0-1.02.252-1.817.755-2.389.503-.572 1.165-.858 1.986-.858.994 0 1.66.366 1.995 1.098.335.732.503 1.787.503 3.165 0 .812-.04 1.636-.122 2.472l-.746 9.097c-.08 1.083-.254 1.913-.52 2.491-.266.578-.705.867-1.318.867-.625 0-1.058-.28-1.301-.84-.243-.559-.416-1.41-.52-2.555zm1.925 12.142a2.636 2.636 0 0 1-1.847-.73c-.526-.485-.79-1.165-.79-2.038 0-.763.252-1.412.755-1.947a2.438 2.438 0 0 1 1.847-.802c.729 0 1.35.267 1.865.802.514.535.772 1.184.772 1.947 0 .861-.26 1.538-.781 2.03-.52.492-1.127.738-1.821.738z"/>
    </g>
</svg>
